<svg xmlns="http://www.w3.org/2000/svg" xmlns:xlink="http://www.w3.org/1999/xlink" width="170" zoomAndPan="magnify" viewBox="0 0 127.5 30.000001" height="40" preserveAspectRatio="xMidYMid meet" version="1.0"><defs><g/></defs><g fill="#ffffff" fill-opacity="1"><g transform="translate(4.210816, 20.539082)"><g><path d="M 5.3125 3.515625 L 4.390625 2.140625 C 4.429688 2.078125 4.484375 2.003906 4.546875 1.921875 C 4.617188 1.847656 4.765625 1.695312 4.984375 1.46875 C 5.203125 1.25 5.410156 1.050781 5.609375 0.875 C 5.816406 0.707031 6.054688 0.554688 6.328125 0.421875 C 6.597656 0.285156 6.847656 0.21875 7.078125 0.21875 L 7.078125 0.140625 C 5.097656 -0.234375 3.5 -1.207031 2.28125 -2.78125 C 1.070312 -4.351562 0.46875 -6.222656 0.46875 -8.390625 C 0.46875 -10.828125 1.28125 -12.882812 2.90625 -14.5625 C 4.53125 -16.238281 6.503906 -17.078125 8.828125 -17.078125 C 11.148438 -17.078125 13.117188 -16.238281 14.734375 -14.5625 C 16.347656 -12.882812 17.15625 -10.828125 17.15625 -8.390625 C 17.15625 -6.398438 16.617188 -4.644531 15.546875 -3.125 C 14.472656 -1.613281 13.066406 -0.59375 11.328125 -0.0625 L 11.328125 0.015625 C 11.398438 0.015625 11.753906 0.078125 12.390625 0.203125 C 13.035156 0.335938 13.546875 0.40625 13.921875 0.40625 C 14.441406 0.40625 14.910156 0.3125 15.328125 0.125 C 15.742188 -0.0507812 16.035156 -0.226562 16.203125 -0.40625 L 16.453125 -0.6875 L 17.640625 1.890625 C 17.617188 1.953125 17.578125 2.035156 17.515625 2.140625 C 17.453125 2.242188 17.3125 2.421875 17.09375 2.671875 C 16.875 2.929688 16.632812 3.160156 16.375 3.359375 C 16.113281 3.566406 15.757812 3.753906 15.3125 3.921875 C 14.875 4.085938 14.40625 4.171875 13.90625 4.171875 C 13.082031 4.171875 12.070312 3.90625 10.875 3.375 C 9.6875 2.84375 8.65625 2.578125 7.78125 2.578125 C 7.3125 2.578125 6.867188 2.65625 6.453125 2.8125 C 6.035156 2.96875 5.738281 3.128906 5.5625 3.296875 Z M 4.59375 -8.390625 C 4.59375 -7.742188 4.664062 -7.140625 4.8125 -6.578125 C 4.96875 -6.015625 5.203125 -5.5 5.515625 -5.03125 C 5.835938 -4.570312 6.28125 -4.210938 6.84375 -3.953125 C 7.40625 -3.691406 8.066406 -3.5625 8.828125 -3.5625 C 10.242188 -3.5625 11.296875 -4.019531 11.984375 -4.9375 C 12.679688 -5.863281 13.03125 -7.015625 13.03125 -8.390625 C 13.03125 -9.765625 12.675781 -10.914062 11.96875 -11.84375 C 11.269531 -12.769531 10.222656 -13.234375 8.828125 -13.234375 C 7.441406 -13.234375 6.390625 -12.765625 5.671875 -11.828125 C 4.953125 -10.890625 4.59375 -9.742188 4.59375 -8.390625 Z M 4.59375 -8.390625 "/></g></g></g><g fill="#ffffff" fill-opacity="1"><g transform="translate(21.839482, 20.539082)"><g><path d="M 14.109375 -16.765625 L 14.109375 -5.953125 C 14.109375 -3.890625 13.550781 -2.328125 12.4375 -1.265625 C 11.332031 -0.210938 9.707031 0.3125 7.5625 0.3125 C 5.414062 0.3125 3.785156 -0.210938 2.671875 -1.265625 C 1.566406 -2.328125 1.015625 -3.890625 1.015625 -5.953125 L 1.015625 -16.765625 L 4.84375 -16.765625 L 4.84375 -7.078125 C 4.84375 -5.722656 5.054688 -4.78125 5.484375 -4.25 C 5.910156 -3.71875 6.601562 -3.453125 7.5625 -3.453125 C 8.519531 -3.453125 9.210938 -3.71875 9.640625 -4.25 C 10.066406 -4.78125 10.28125 -5.722656 10.28125 -7.078125 L 10.28125 -16.765625 Z M 14.109375 -16.765625 "/></g></g></g><g fill="#ffffff" fill-opacity="1"><g transform="translate(36.967196, 20.539082)"><g><path d="M 5.046875 -16.765625 L 5.046875 0 L 1.21875 0 L 1.21875 -16.765625 Z M 5.046875 -16.765625 "/></g></g></g><g fill="#ffffff" fill-opacity="1"><g transform="translate(43.229742, 20.539082)"><g><path d="M 15.3125 -16.765625 L 7 -3.359375 L 14.765625 -3.359375 L 14.765625 0 L 0.328125 0 L 8.625 -13.421875 L 1.5 -13.421875 L 1.5 -16.765625 Z M 15.3125 -16.765625 "/></g></g></g><g fill="#ffffff" fill-opacity="1"><g transform="translate(58.865779, 20.539082)"><g><path d="M 15.3125 -16.765625 L 7 -3.359375 L 14.765625 -3.359375 L 14.765625 0 L 0.328125 0 L 8.625 -13.421875 L 1.5 -13.421875 L 1.5 -16.765625 Z M 15.3125 -16.765625 "/></g></g></g><g fill="#ffffff" fill-opacity="1"><g transform="translate(74.501817, 20.539082)"><g/></g></g><g fill="#ffffff" fill-opacity="1"><g transform="translate(80.052713, 20.539082)"><g><path d="M 1.21875 -16.765625 L 6.078125 -16.765625 C 8.410156 -16.765625 10.398438 -15.96875 12.046875 -14.375 C 13.703125 -12.789062 14.53125 -10.796875 14.53125 -8.390625 C 14.53125 -5.984375 13.707031 -3.984375 12.0625 -2.390625 C 10.414062 -0.796875 8.421875 0 6.078125 0 L 1.21875 0 Z M 5.046875 -3.421875 L 5.625 -3.421875 C 7.019531 -3.421875 8.160156 -3.890625 9.046875 -4.828125 C 9.941406 -5.765625 10.394531 -6.945312 10.40625 -8.375 C 10.40625 -9.800781 9.960938 -10.988281 9.078125 -11.9375 C 8.191406 -12.882812 7.039062 -13.359375 5.625 -13.359375 L 5.046875 -13.359375 Z M 5.046875 -3.421875 "/></g></g></g><g fill="#ffffff" fill-opacity="1"><g transform="translate(95.058431, 20.539082)"><g><path d="M 10.8125 -16.765625 L 10.8125 -13.421875 L 5.046875 -13.421875 L 5.046875 -10.078125 L 10.578125 -10.078125 L 10.578125 -6.734375 L 5.046875 -6.734375 L 5.046875 -3.359375 L 10.8125 -3.359375 L 10.8125 0 L 1.21875 0 L 1.21875 -16.765625 Z M 10.8125 -16.765625 "/></g></g></g><g fill="#ffffff" fill-opacity="1"><g transform="translate(106.851539, 20.539082)"><g><path d="M 6.46875 0 L -0.5625 -16.765625 L 3.734375 -16.765625 L 7.96875 -5.75 L 12.203125 -16.765625 L 16.5 -16.765625 L 9.46875 0 Z M 6.46875 0 "/></g></g></g></svg>